<svg xmlns="http://www.w3.org/2000/svg" width="94.75999999999999" height="35" viewBox="0 0 94.75999999999999 35"><rect class="svg__rect" x="0" y="0" width="94.75999999999999" height="35" fill="#31C4F3"/><rect class="svg__rect" x="94.75999999999999" y="0" width="0" height="35" fill="#389AD5"/><path class="svg__text" d="M15.00 22L13.46 22L16.68 13.47L18.01 13.47L21.24 22L19.69 22L18.99 20.01L15.69 20.01L15.00 22ZM17.34 15.28L16.10 18.82L18.58 18.82L17.34 15.28ZM27.82 18.95L24.74 18.95L24.74 17.80L27.82 17.80L27.82 18.95ZM33.60 22L32.12 22L32.12 13.47L37.54 13.47L37.54 14.66L33.60 14.66L33.60 17.20L37.03 17.20L37.03 18.38L33.60 18.38L33.60 22ZM43.18 22L41.70 22L41.70 13.47L44.70 13.47Q46.17 13.47 46.98 14.13Q47.78 14.79 47.78 16.05L47.78 16.05Q47.78 16.90 47.37 17.48Q46.95 18.06 46.22 18.37L46.22 18.37L48.13 21.92L48.13 22L46.54 22L44.83 18.71L43.18 18.71L43.18 22ZM43.18 14.66L43.18 17.52L44.70 17.52Q45.45 17.52 45.88 17.15Q46.30 16.77 46.30 16.11L46.30 16.11Q46.30 15.43 45.91 15.05Q45.52 14.68 44.74 14.66L44.74 14.66L43.18 14.66ZM52.95 22L51.41 22L54.64 13.47L55.97 13.47L59.19 22L57.65 22L56.95 20.01L53.64 20.01L52.95 22ZM55.30 15.28L54.06 18.82L56.53 18.82L55.30 15.28ZM64.63 22L63.15 22L63.15 13.47L65.07 13.47L67.53 20.01L69.99 13.47L71.90 13.47L71.90 22L70.43 22L70.43 19.19L70.57 15.43L68.05 22L66.99 22L64.48 15.43L64.63 19.19L64.63 22ZM82.22 22L76.64 22L76.64 13.47L82.18 13.47L82.18 14.66L78.13 14.66L78.13 17.02L81.63 17.02L81.63 18.19L78.13 18.19L78.13 20.82L82.22 20.82L82.22 22Z" fill="#FFFFFF"/><path class="svg__text" d="" fill="#FFFFFF" x="107.75999999999999"/></svg>