<svg xmlns="http://www.w3.org/2000/svg" width="98.1" height="35" viewBox="0 0 98.1 35"><rect class="svg__rect" x="0" y="0" width="98.1" height="35" fill="#C3002F"/><rect class="svg__rect" x="98.1" y="0" width="0" height="35" fill="#389AD5"/><path class="svg__text" d="M15.00 22L13.46 22L16.68 13.47L18.01 13.47L21.24 22L19.69 22L18.99 20.01L15.69 20.01L15.00 22ZM17.34 15.28L16.10 18.82L18.58 18.82L17.34 15.28ZM26.67 22L25.19 22L25.19 13.47L26.67 13.47L30.49 19.54L30.49 13.47L31.96 13.47L31.96 22L30.48 22L26.67 15.95L26.67 22ZM36.45 18.13L36.45 18.13L36.45 17.46Q36.45 15.53 37.38 14.44Q38.31 13.35 39.96 13.35L39.96 13.35Q41.39 13.35 42.23 14.05Q43.06 14.76 43.23 16.08L43.23 16.08L41.78 16.08Q41.53 14.54 39.99 14.54L39.99 14.54Q39.00 14.54 38.48 15.26Q37.96 15.98 37.94 17.37L37.94 17.37L37.94 18.02Q37.94 19.40 38.52 20.17Q39.11 20.93 40.14 20.93L40.14 20.93Q41.28 20.93 41.76 20.42L41.76 20.42L41.76 18.75L40.00 18.75L40.00 17.62L43.24 17.62L43.24 20.89Q42.78 21.50 41.96 21.81Q41.14 22.12 40.09 22.12L40.09 22.12Q39.02 22.12 38.19 21.63Q37.37 21.14 36.92 20.24Q36.47 19.33 36.45 18.13ZM47.72 19.16L47.72 19.16L47.72 13.47L49.20 13.47L49.20 19.18Q49.20 20.03 49.63 20.48Q50.06 20.93 50.91 20.93L50.91 20.93Q52.62 20.93 52.62 19.13L52.62 19.13L52.62 13.47L54.10 13.47L54.10 19.17Q54.10 20.53 53.23 21.32Q52.36 22.12 50.91 22.12L50.91 22.12Q49.44 22.12 48.58 21.33Q47.72 20.55 47.72 19.16ZM64.02 22L58.67 22L58.67 13.47L60.15 13.47L60.15 20.82L64.02 20.82L64.02 22ZM68.93 22L67.39 22L70.61 13.47L71.94 13.47L75.17 22L73.62 22L72.92 20.01L69.62 20.01L68.93 22ZM71.27 15.28L70.03 18.82L72.51 18.82L71.27 15.28ZM80.60 22L79.12 22L79.12 13.47L82.12 13.47Q83.60 13.47 84.40 14.13Q85.20 14.79 85.20 16.05L85.20 16.05Q85.20 16.90 84.79 17.48Q84.38 18.06 83.64 18.37L83.64 18.37L85.56 21.92L85.56 22L83.97 22L82.26 18.71L80.60 18.71L80.60 22ZM80.60 14.66L80.60 17.52L82.13 17.52Q82.88 17.52 83.30 17.15Q83.72 16.77 83.72 16.11L83.72 16.11Q83.72 15.43 83.33 15.05Q82.94 14.68 82.17 14.66L82.17 14.66L80.60 14.66Z" fill="#FFFFFF"/><path class="svg__text" d="" fill="#FFFFFF" x="111.1"/></svg>