<svg xmlns="http://www.w3.org/2000/svg" width="88.48" height="35" viewBox="0 0 88.48 35"><rect class="svg__rect" x="0" y="0" width="88.48" height="35" fill="#6BEB0F"/><rect class="svg__rect" x="88.48" y="0" width="0" height="35" fill="#389AD5"/><path class="svg__text" d="M17.33 22L14.22 22L14.22 13.47L17.14 13.47Q18.59 13.47 19.34 14.05Q20.10 14.63 20.10 15.78L20.10 15.78Q20.10 16.36 19.78 16.83Q19.47 17.30 18.86 17.56L18.86 17.56Q19.55 17.75 19.93 18.26Q20.31 18.78 20.31 19.51L20.31 19.51Q20.31 20.71 19.53 21.36Q18.76 22 17.33 22L17.33 22ZM15.70 18.15L15.70 20.82L17.35 20.82Q18.04 20.82 18.44 20.47Q18.83 20.13 18.83 19.51L18.83 19.51Q18.83 18.18 17.47 18.15L17.47 18.15L15.70 18.15ZM15.70 14.66L15.70 17.06L17.15 17.06Q17.84 17.06 18.23 16.75Q18.62 16.43 18.62 15.86L18.62 15.86Q18.62 15.23 18.26 14.95Q17.90 14.66 17.14 14.66L17.14 14.66L15.70 14.66ZM26.34 22L24.86 22L24.86 13.47L26.34 13.47L26.34 22ZM32.83 14.66L30.20 14.66L30.20 13.47L36.96 13.47L36.96 14.66L34.30 14.66L34.30 22L32.83 22L32.83 14.66ZM42.20 22L40.72 22L40.72 13.47L42.64 13.47L45.10 20.01L47.56 13.47L49.47 13.47L49.47 22L48.00 22L48.00 19.19L48.14 15.43L45.62 22L44.56 22L42.05 15.43L42.20 19.19L42.20 22ZM53.94 18.00L53.94 18.00L53.94 17.52Q53.94 16.28 54.39 15.32Q54.83 14.37 55.63 13.86Q56.44 13.35 57.48 13.35Q58.53 13.35 59.33 13.85Q60.14 14.35 60.58 15.29Q61.02 16.23 61.02 17.48L61.02 17.48L61.02 17.96Q61.02 19.21 60.59 20.16Q60.15 21.10 59.35 21.61Q58.54 22.12 57.49 22.12L57.49 22.12Q56.46 22.12 55.65 21.61Q54.83 21.10 54.39 20.17Q53.95 19.23 53.94 18.00ZM55.43 17.46L55.43 17.96Q55.43 19.36 55.97 20.13Q56.52 20.90 57.49 20.90L57.49 20.90Q58.48 20.90 59.01 20.15Q59.54 19.40 59.54 17.96L59.54 17.96L59.54 17.51Q59.54 16.09 59.00 15.34Q58.47 14.58 57.48 14.58L57.48 14.58Q56.52 14.58 55.98 15.33Q55.44 16.09 55.43 17.46L55.43 17.46ZM64.88 19.57L64.88 19.57L66.36 19.57Q66.36 20.25 66.70 20.59Q67.03 20.93 67.67 20.93L67.67 20.93Q68.27 20.93 68.62 20.54Q68.98 20.14 68.98 19.45L68.98 19.45L68.98 13.47L70.46 13.47L70.46 19.45Q70.46 20.68 69.69 21.40Q68.93 22.12 67.67 22.12L67.67 22.12Q66.34 22.12 65.61 21.44Q64.88 20.77 64.88 19.57ZM76.70 22L75.22 22L75.22 13.47L76.70 13.47L76.70 22Z" fill="#FFFFFF"/><path class="svg__text" d="" fill="#FFFFFF" x="101.48"/></svg>