<svg xmlns="http://www.w3.org/2000/svg" width="77.36" height="35" viewBox="0 0 77.36 35"><rect class="svg__rect" x="0" y="0" width="77.36" height="35" fill="#00D1B2"/><rect class="svg__rect" x="77.36" y="0" width="0" height="35" fill="#389AD5"/><path class="svg__text" d="M17.33 22L14.22 22L14.22 13.47L17.14 13.47Q18.59 13.47 19.34 14.05Q20.10 14.63 20.10 15.78L20.10 15.78Q20.10 16.36 19.78 16.83Q19.47 17.30 18.86 17.56L18.86 17.56Q19.55 17.75 19.93 18.26Q20.31 18.78 20.31 19.51L20.31 19.51Q20.31 20.71 19.53 21.36Q18.76 22 17.33 22L17.33 22ZM15.70 18.15L15.70 20.82L17.35 20.82Q18.04 20.82 18.44 20.47Q18.83 20.13 18.83 19.51L18.83 19.51Q18.83 18.18 17.47 18.15L17.47 18.15L15.70 18.15ZM15.70 14.66L15.70 17.06L17.15 17.06Q17.84 17.06 18.23 16.75Q18.62 16.43 18.62 15.86L18.62 15.86Q18.62 15.23 18.26 14.95Q17.90 14.66 17.14 14.66L17.14 14.66L15.70 14.66ZM24.64 19.16L24.64 19.16L24.64 13.47L26.12 13.47L26.12 19.18Q26.12 20.03 26.55 20.48Q26.98 20.93 27.83 20.93L27.83 20.93Q29.54 20.93 29.54 19.13L29.54 19.13L29.54 13.47L31.02 13.47L31.02 19.17Q31.02 20.53 30.15 21.32Q29.28 22.12 27.83 22.12L27.83 22.12Q26.36 22.12 25.50 21.33Q24.64 20.55 24.64 19.16ZM40.94 22L35.59 22L35.59 13.47L37.07 13.47L37.07 20.82L40.94 20.82L40.94 22ZM46.54 22L45.07 22L45.07 13.47L46.99 13.47L49.45 20.01L51.90 13.47L53.82 13.47L53.82 22L52.34 22L52.34 19.19L52.49 15.43L49.97 22L48.91 22L46.40 15.43L46.54 19.19L46.54 22ZM59.34 22L57.80 22L61.02 13.47L62.35 13.47L65.58 22L64.03 22L63.34 20.01L60.03 20.01L59.34 22ZM61.68 15.28L60.45 18.82L62.92 18.82L61.68 15.28Z" fill="#000000"/><path class="svg__text" d="" fill="#FFFFFF" x="90.36"/></svg>