<svg xmlns="http://www.w3.org/2000/svg" width="86.19" height="35" viewBox="0 0 86.19 35"><rect class="svg__rect" x="0" y="0" width="55.260000000000005" height="35" fill="#3C9AD5"/><rect class="svg__rect" x="53.260000000000005" y="0" width="32.92999999999999" height="35" fill="#3AC1D0"/><path class="svg__text" d="M13.95 18.19L13.95 18.19L13.95 17.39Q13.95 16.19 14.38 15.27Q14.80 14.35 15.60 13.85Q16.40 13.35 17.45 13.35L17.45 13.35Q18.86 13.35 19.73 14.12Q20.59 14.89 20.73 16.29L20.73 16.29L19.25 16.29Q19.14 15.37 18.71 14.96Q18.28 14.55 17.45 14.55L17.45 14.55Q16.48 14.55 15.97 15.26Q15.45 15.96 15.44 17.33L15.44 17.33L15.44 18.09Q15.44 19.47 15.93 20.20Q16.43 20.92 17.38 20.92L17.38 20.92Q18.25 20.92 18.69 20.53Q19.13 20.14 19.25 19.22L19.25 19.22L20.73 19.22Q20.60 20.59 19.72 21.35Q18.84 22.12 17.38 22.12L17.38 22.12Q16.36 22.12 15.59 21.63Q14.81 21.15 14.39 20.26Q13.97 19.37 13.95 18.19ZM24.61 19.42L24.61 19.42L26.09 19.42Q26.09 20.15 26.57 20.55Q27.05 20.95 27.95 20.95L27.95 20.95Q28.72 20.95 29.11 20.63Q29.50 20.32 29.50 19.80L29.50 19.80Q29.50 19.24 29.10 18.94Q28.71 18.63 27.68 18.32Q26.64 18.01 26.04 17.63L26.04 17.63Q24.87 16.90 24.87 15.72L24.87 15.72Q24.87 14.69 25.71 14.02Q26.55 13.35 27.89 13.35L27.89 13.35Q28.78 13.35 29.48 13.68Q30.18 14.01 30.58 14.61Q30.98 15.22 30.98 15.96L30.98 15.96L29.50 15.96Q29.50 15.29 29.08 14.91Q28.66 14.54 27.88 14.54L27.88 14.54Q27.15 14.54 26.75 14.85Q26.35 15.16 26.35 15.71L26.35 15.71Q26.35 16.18 26.79 16.50Q27.22 16.81 28.22 17.10Q29.21 17.40 29.81 17.78Q30.42 18.16 30.70 18.65Q30.98 19.13 30.98 19.79L30.98 19.79Q30.98 20.86 30.16 21.49Q29.35 22.12 27.95 22.12L27.95 22.12Q27.02 22.12 26.24 21.77Q25.47 21.43 25.04 20.83Q24.61 20.22 24.61 19.42ZM34.84 19.42L34.84 19.42L36.32 19.42Q36.32 20.15 36.80 20.55Q37.28 20.95 38.18 20.95L38.18 20.95Q38.95 20.95 39.34 20.63Q39.73 20.32 39.73 19.80L39.73 19.80Q39.73 19.24 39.33 18.94Q38.94 18.63 37.91 18.32Q36.88 18.01 36.27 17.63L36.27 17.63Q35.10 16.90 35.10 15.72L35.10 15.72Q35.10 14.69 35.94 14.02Q36.78 13.35 38.12 13.35L38.12 13.35Q39.01 13.35 39.71 13.68Q40.41 14.01 40.81 14.61Q41.21 15.22 41.21 15.96L41.21 15.96L39.73 15.96Q39.73 15.29 39.31 14.91Q38.89 14.54 38.11 14.54L38.11 14.54Q37.39 14.54 36.98 14.85Q36.58 15.16 36.58 15.71L36.58 15.71Q36.58 16.18 37.02 16.50Q37.45 16.81 38.45 17.10Q39.44 17.40 40.05 17.78Q40.65 18.16 40.93 18.65Q41.21 19.13 41.21 19.79L41.21 19.79Q41.21 20.86 40.39 21.49Q39.58 22.12 38.18 22.12L38.18 22.12Q37.25 22.12 36.47 21.77Q35.70 21.43 35.27 20.83Q34.84 20.22 34.84 19.42Z" fill="#FFFFFF"/><path class="svg__text" d="M66.56 21.34L66.56 21.34L67.42 19.55Q67.92 19.88 68.53 20.07Q69.15 20.25 69.76 20.25L69.76 20.25Q70.37 20.25 70.73 20.02Q71.09 19.79 71.09 19.37L71.09 19.37Q71.09 18.55 69.80 18.55L69.80 18.55L68.81 18.55L68.81 17.05L70.31 15.44L67.00 15.44L67.00 13.60L73.07 13.60L73.07 15.09L71.33 16.96Q72.37 17.18 72.93 17.82Q73.49 18.46 73.49 19.37L73.49 19.37Q73.49 20.11 73.08 20.75Q72.68 21.39 71.86 21.78Q71.04 22.17 69.83 22.17L69.83 22.17Q68.94 22.17 68.07 21.95Q67.20 21.74 66.56 21.34Z" fill="#FFFFFF" x="66.26"/></svg>