<svg xmlns="http://www.w3.org/2000/svg" width="73.62" height="35" viewBox="0 0 73.62 35"><rect class="svg__rect" x="0" y="0" width="73.62" height="35" fill="#000000"/><rect class="svg__rect" x="73.62" y="0" width="0" height="35" fill="#389AD5"/><path class="svg__text" d="M15.70 22L14.22 22L14.22 13.47L19.64 13.47L19.64 14.66L15.70 14.66L15.70 17.20L19.13 17.20L19.13 18.38L15.70 18.38L15.70 22ZM25.36 22L23.89 22L23.89 13.47L25.36 13.47L25.36 22ZM29.93 18.13L29.93 18.13L29.93 17.46Q29.93 15.53 30.85 14.44Q31.78 13.35 33.44 13.35L33.44 13.35Q34.86 13.35 35.70 14.05Q36.54 14.76 36.71 16.08L36.71 16.08L35.25 16.08Q35.01 14.54 33.47 14.54L33.47 14.54Q32.47 14.54 31.95 15.26Q31.43 15.98 31.41 17.37L31.41 17.37L31.41 18.02Q31.41 19.40 32.00 20.17Q32.58 20.93 33.62 20.93L33.62 20.93Q34.75 20.93 35.23 20.42L35.23 20.42L35.23 18.75L33.48 18.75L33.48 17.62L36.71 17.62L36.71 20.89Q36.25 21.50 35.43 21.81Q34.61 22.12 33.56 22.12L33.56 22.12Q32.49 22.12 31.67 21.63Q30.84 21.14 30.39 20.24Q29.94 19.33 29.93 18.13ZM42.81 22L41.33 22L41.33 13.47L43.25 13.47L45.71 20.01L48.17 13.47L50.08 13.47L50.08 22L48.61 22L48.61 19.19L48.75 15.43L46.23 22L45.17 22L42.66 15.43L42.81 19.19L42.81 22ZM55.60 22L54.06 22L57.28 13.47L58.61 13.47L61.84 22L60.30 22L59.60 20.01L56.29 20.01L55.60 22ZM57.95 15.28L56.71 18.82L59.18 18.82L57.95 15.28Z" fill="#FFFFFF"/><path class="svg__text" d="" fill="#FFFFFF" x="86.62"/></svg>