<svg xmlns="http://www.w3.org/2000/svg" width="179.89" height="35" viewBox="0 0 179.89 35"><rect class="svg__rect" x="0" y="0" width="66.17" height="35" fill="#538DD7"/><rect class="svg__rect" x="64.17" y="0" width="115.72" height="35" fill="#183153"/><path class="svg__text" d="M15.70 22L14.22 22L14.22 13.47L19.64 13.47L19.64 14.66L15.70 14.66L15.70 17.20L19.13 17.20L19.13 18.38L15.70 18.38L15.70 22ZM23.53 18.00L23.53 18.00L23.53 17.52Q23.53 16.28 23.97 15.32Q24.41 14.37 25.22 13.86Q26.02 13.35 27.07 13.35Q28.11 13.35 28.92 13.85Q29.72 14.35 30.16 15.29Q30.60 16.23 30.61 17.48L30.61 17.48L30.61 17.96Q30.61 19.21 30.17 20.16Q29.74 21.10 28.93 21.61Q28.13 22.12 27.08 22.12L27.08 22.12Q26.04 22.12 25.23 21.61Q24.42 21.10 23.98 20.17Q23.53 19.23 23.53 18.00ZM25.01 17.46L25.01 17.96Q25.01 19.36 25.56 20.13Q26.11 20.90 27.08 20.90L27.08 20.90Q28.06 20.90 28.59 20.15Q29.12 19.40 29.12 17.96L29.12 17.96L29.12 17.51Q29.12 16.09 28.59 15.34Q28.05 14.58 27.07 14.58L27.07 14.58Q26.11 14.58 25.56 15.33Q25.02 16.09 25.01 17.46L25.01 17.46ZM36.55 22L35.07 22L35.07 13.47L36.55 13.47L40.37 19.54L40.37 13.47L41.84 13.47L41.84 22L40.36 22L36.55 15.95L36.55 22ZM48.26 14.66L45.62 14.66L45.62 13.47L52.39 13.47L52.39 14.66L49.73 14.66L49.73 22L48.26 22L48.26 14.66Z" fill="#FFFFFF"/><path class="svg__text" d="M79.78 22L77.35 22L81.06 13.60L83.40 13.60L87.12 22L84.65 22L83.99 20.37L80.44 20.37L79.78 22ZM82.21 15.93L81.13 18.61L83.29 18.61L82.21 15.93ZM93.35 22L90.63 13.60L93.08 13.60L94.76 18.96L96.54 13.60L98.73 13.60L100.42 19.01L102.18 13.60L104.45 13.60L101.73 22L99.18 22L97.58 16.89L95.89 22L93.35 22ZM115.71 22L108.96 22L108.96 13.60L115.55 13.60L115.55 15.44L111.32 15.44L111.32 16.85L115.05 16.85L115.05 18.63L111.32 18.63L111.32 20.17L115.71 20.17L115.71 22ZM119.92 21.24L119.92 21.24L120.70 19.49Q121.27 19.86 122.01 20.09Q122.75 20.32 123.48 20.32L123.48 20.32Q124.84 20.32 124.85 19.64L124.85 19.64Q124.85 19.28 124.46 19.11Q124.07 18.93 123.20 18.74L123.20 18.74Q122.25 18.53 121.61 18.30Q120.98 18.06 120.52 17.55Q120.07 17.03 120.07 16.16L120.07 16.16Q120.07 15.39 120.49 14.77Q120.91 14.15 121.74 13.79Q122.58 13.43 123.79 13.43L123.79 13.43Q124.61 13.43 125.42 13.62Q126.22 13.80 126.84 14.17L126.84 14.17L126.11 15.93Q124.90 15.28 123.77 15.28L123.77 15.28Q123.06 15.28 122.74 15.49Q122.42 15.70 122.42 16.04L122.42 16.04Q122.42 16.37 122.80 16.54Q123.19 16.71 124.04 16.89L124.04 16.89Q125.00 17.10 125.63 17.33Q126.26 17.56 126.72 18.07Q127.18 18.58 127.18 19.46L127.18 19.46Q127.18 20.21 126.77 20.83Q126.35 21.44 125.51 21.80Q124.66 22.17 123.46 22.17L123.46 22.17Q122.44 22.17 121.48 21.92Q120.52 21.67 119.92 21.24ZM131.33 17.80L131.33 17.80Q131.33 16.55 131.94 15.55Q132.54 14.56 133.60 14.00Q134.67 13.43 136.00 13.43L136.00 13.43Q137.33 13.43 138.39 14.00Q139.45 14.56 140.06 15.55Q140.67 16.55 140.67 17.80L140.67 17.80Q140.67 19.05 140.06 20.04Q139.45 21.04 138.39 21.60Q137.33 22.17 136.00 22.17L136.00 22.17Q134.67 22.17 133.60 21.60Q132.54 21.04 131.94 20.04Q131.33 19.05 131.33 17.80ZM133.73 17.80L133.73 17.80Q133.73 18.51 134.03 19.05Q134.33 19.60 134.85 19.90Q135.36 20.20 136.00 20.20L136.00 20.20Q136.64 20.20 137.15 19.90Q137.67 19.60 137.97 19.05Q138.26 18.51 138.26 17.80L138.26 17.80Q138.26 17.09 137.97 16.54Q137.67 16 137.15 15.70Q136.64 15.40 136.00 15.40L136.00 15.40Q135.36 15.40 134.85 15.70Q134.33 16 134.03 16.54Q133.73 17.09 133.73 17.80ZM147.59 22L145.40 22L145.40 13.60L147.35 13.60L150.31 18.45L153.19 13.60L155.14 13.60L155.16 22L152.98 22L152.96 17.55L150.80 21.17L149.74 21.17L147.59 17.67L147.59 22ZM167.07 22L160.32 22L160.32 13.60L166.92 13.60L166.92 15.44L162.68 15.44L162.68 16.85L166.41 16.85L166.41 18.63L162.68 18.63L162.68 20.17L167.07 20.17L167.07 22Z" fill="#F1F3F4" x="77.17"/></svg>