<svg xmlns="http://www.w3.org/2000/svg" width="49.59" height="35" viewBox="0 0 49.59 35"><rect class="svg__rect" x="0" y="0" width="49.59" height="35" fill="#E84E31"/><rect class="svg__rect" x="49.59" y="0" width="0" height="35" fill="#389AD5"/><path class="svg__text" d="M13.97 18.13L13.97 18.13L13.97 17.46Q13.97 15.53 14.90 14.44Q15.82 13.35 17.48 13.35L17.48 13.35Q18.90 13.35 19.74 14.05Q20.58 14.76 20.75 16.08L20.75 16.08L19.30 16.08Q19.05 14.54 17.51 14.54L17.51 14.54Q16.51 14.54 16.00 15.26Q15.48 15.98 15.46 17.37L15.46 17.37L15.46 18.02Q15.46 19.40 16.04 20.17Q16.63 20.93 17.66 20.93L17.66 20.93Q18.80 20.93 19.28 20.42L19.28 20.42L19.28 18.75L17.52 18.75L17.52 17.62L20.76 17.62L20.76 20.89Q20.29 21.50 19.47 21.81Q18.65 22.12 17.61 22.12L17.61 22.12Q16.54 22.12 15.71 21.63Q14.89 21.14 14.44 20.24Q13.99 19.33 13.97 18.13ZM26.94 22L25.46 22L25.46 13.47L26.94 13.47L26.94 22ZM33.43 14.66L30.79 14.66L30.79 13.47L37.56 13.47L37.56 14.66L34.90 14.66L34.90 22L33.43 22L33.43 14.66Z" fill="#000000"/><path class="svg__text" d="" fill="#FFFFFF" x="62.59"/></svg>