<svg xmlns="http://www.w3.org/2000/svg" width="98.85000000000001" height="35" viewBox="0 0 98.85000000000001 35"><rect class="svg__rect" x="0" y="0" width="67.93" height="35" fill="#E46C17"/><rect class="svg__rect" x="65.93" y="0" width="32.92" height="35" fill="#D27D41"/><path class="svg__text" d="M15.70 22L14.22 22L14.22 13.47L15.70 13.47L15.70 17.02L19.51 17.02L19.51 13.47L20.99 13.47L20.99 22L19.51 22L19.51 18.21L15.70 18.21L15.70 22ZM27.41 14.66L24.78 14.66L24.78 13.47L31.54 13.47L31.54 14.66L28.88 14.66L28.88 22L27.41 22L27.41 14.66ZM36.78 22L35.30 22L35.30 13.47L37.22 13.47L39.68 20.01L42.14 13.47L44.05 13.47L44.05 22L42.58 22L42.58 19.19L42.72 15.43L40.20 22L39.14 22L36.63 15.43L36.78 19.19L36.78 22ZM54.15 22L48.79 22L48.79 13.47L50.28 13.47L50.28 20.82L54.15 20.82L54.15 22Z" fill="#FFFFFF"/><path class="svg__text" d="M79.37 21.34L79.37 21.34L80.23 19.55Q80.73 19.88 81.34 20.07Q81.95 20.25 82.56 20.25L82.56 20.25Q83.16 20.25 83.53 20.01Q83.90 19.78 83.90 19.36L83.90 19.36Q83.90 18.94 83.54 18.72Q83.18 18.51 82.27 18.51L82.27 18.51L79.99 18.51L80.41 13.60L85.76 13.60L85.76 15.44L82.37 15.44L82.27 16.66L82.83 16.66Q84.59 16.66 85.44 17.38Q86.29 18.10 86.29 19.30L86.29 19.30Q86.29 20.08 85.89 20.73Q85.49 21.39 84.66 21.78Q83.84 22.17 82.63 22.17L82.63 22.17Q81.74 22.17 80.87 21.95Q80.00 21.74 79.37 21.34Z" fill="#FFFFFF" x="78.93"/></svg>