<svg xmlns="http://www.w3.org/2000/svg" width="92.72" height="35" viewBox="0 0 92.72 35"><rect class="svg__rect" x="0" y="0" width="92.72" height="35" fill="#3F9103"/><rect class="svg__rect" x="92.72" y="0" width="0" height="35" fill="#389AD5"/><path class="svg__text" d="M15.78 22L14.31 22L14.31 13.47L15.78 13.47L15.78 22ZM20.32 18.19L20.32 18.19L20.32 17.39Q20.32 16.19 20.75 15.27Q21.18 14.35 21.98 13.85Q22.78 13.35 23.83 13.35L23.83 13.35Q25.24 13.35 26.10 14.12Q26.96 14.89 27.10 16.29L27.10 16.29L25.63 16.29Q25.52 15.37 25.09 14.96Q24.66 14.55 23.83 14.55L23.83 14.55Q22.86 14.55 22.34 15.26Q21.82 15.96 21.81 17.33L21.81 17.33L21.81 18.09Q21.81 19.47 22.31 20.20Q22.80 20.92 23.76 20.92L23.76 20.92Q24.63 20.92 25.07 20.53Q25.51 20.14 25.63 19.22L25.63 19.22L27.10 19.22Q26.97 20.59 26.09 21.35Q25.22 22.12 23.76 22.12L23.76 22.12Q22.74 22.12 21.96 21.63Q21.18 21.15 20.76 20.26Q20.34 19.37 20.32 18.19ZM31.14 18.00L31.14 18.00L31.14 17.52Q31.14 16.28 31.59 15.32Q32.03 14.37 32.84 13.86Q33.64 13.35 34.68 13.35Q35.73 13.35 36.53 13.85Q37.34 14.35 37.78 15.29Q38.22 16.23 38.22 17.48L38.22 17.48L38.22 17.96Q38.22 19.21 37.79 20.16Q37.36 21.10 36.55 21.61Q35.74 22.12 34.70 22.12L34.70 22.12Q33.66 22.12 32.85 21.61Q32.04 21.10 31.59 20.17Q31.15 19.23 31.14 18.00ZM32.63 17.46L32.63 17.96Q32.63 19.36 33.18 20.13Q33.72 20.90 34.70 20.90L34.70 20.90Q35.68 20.90 36.21 20.15Q36.74 19.40 36.74 17.96L36.74 17.96L36.74 17.51Q36.74 16.09 36.20 15.34Q35.67 14.58 34.68 14.58L34.68 14.58Q33.72 14.58 33.18 15.33Q32.64 16.09 32.63 17.46L32.63 17.46ZM44.17 22L42.69 22L42.69 13.47L44.17 13.47L47.98 19.54L47.98 13.47L49.46 13.47L49.46 22L47.97 22L44.17 15.95L44.17 22ZM53.93 18.00L53.93 18.00L53.93 17.52Q53.93 16.28 54.37 15.32Q54.81 14.37 55.62 13.86Q56.42 13.35 57.47 13.35Q58.51 13.35 59.31 13.85Q60.12 14.35 60.56 15.29Q61.00 16.23 61.00 17.48L61.00 17.48L61.00 17.96Q61.00 19.21 60.57 20.16Q60.14 21.10 59.33 21.61Q58.53 22.12 57.48 22.12L57.48 22.12Q56.44 22.12 55.63 21.61Q54.82 21.10 54.37 20.17Q53.93 19.23 53.93 18.00ZM55.41 17.46L55.41 17.96Q55.41 19.36 55.96 20.13Q56.50 20.90 57.48 20.90L57.48 20.90Q58.46 20.90 58.99 20.15Q59.52 19.40 59.52 17.96L59.52 17.96L59.52 17.51Q59.52 16.09 58.99 15.34Q58.45 14.58 57.47 14.58L57.47 14.58Q56.50 14.58 55.96 15.33Q55.42 16.09 55.41 17.46L55.41 17.46ZM65.04 19.42L65.04 19.42L66.52 19.42Q66.52 20.15 67.00 20.55Q67.48 20.95 68.38 20.95L68.38 20.95Q69.15 20.95 69.54 20.63Q69.93 20.32 69.93 19.80L69.93 19.80Q69.93 19.24 69.53 18.94Q69.14 18.63 68.11 18.32Q67.07 18.01 66.47 17.63L66.47 17.63Q65.30 16.90 65.30 15.72L65.30 15.72Q65.30 14.69 66.14 14.02Q66.98 13.35 68.32 13.35L68.32 13.35Q69.21 13.35 69.91 13.68Q70.61 14.01 71.01 14.61Q71.40 15.22 71.40 15.96L71.40 15.96L69.93 15.96Q69.93 15.29 69.51 14.91Q69.09 14.54 68.31 14.54L68.31 14.54Q67.58 14.54 67.18 14.85Q66.78 15.16 66.78 15.71L66.78 15.71Q66.78 16.18 67.22 16.50Q67.65 16.81 68.64 17.10Q69.64 17.40 70.24 17.78Q70.85 18.16 71.13 18.65Q71.41 19.13 71.41 19.79L71.41 19.79Q71.41 20.86 70.59 21.49Q69.78 22.12 68.38 22.12L68.38 22.12Q67.45 22.12 66.67 21.77Q65.90 21.43 65.47 20.83Q65.04 20.22 65.04 19.42ZM75.44 19.67L75.44 19.67Q75.44 18.99 75.81 18.44Q76.17 17.90 76.82 17.61L76.82 17.61Q76.27 17.32 75.95 16.83Q75.64 16.35 75.64 15.72L75.64 15.72Q75.64 14.63 76.34 13.99Q77.04 13.35 78.24 13.35L78.24 13.35Q79.44 13.35 80.14 13.99Q80.84 14.63 80.84 15.72L80.84 15.72Q80.84 16.35 80.52 16.83Q80.20 17.32 79.64 17.61L79.64 17.61Q80.31 17.92 80.67 18.46Q81.03 18.99 81.03 19.67L81.03 19.67Q81.03 20.80 80.27 21.46Q79.51 22.12 78.24 22.12L78.24 22.12Q76.97 22.12 76.21 21.46Q75.44 20.79 75.44 19.67ZM76.87 19.60L76.87 19.60Q76.87 20.23 77.23 20.61Q77.60 20.98 78.24 20.98Q78.89 20.98 79.25 20.62Q79.61 20.25 79.61 19.60L79.61 19.60Q79.61 18.97 79.23 18.58Q78.85 18.19 78.23 18.19Q77.61 18.19 77.24 18.58Q76.87 18.96 76.87 19.60ZM77.06 15.77L77.06 15.77Q77.06 16.36 77.38 16.70Q77.70 17.05 78.24 17.05Q78.79 17.05 79.11 16.70Q79.43 16.36 79.43 15.77L79.43 15.77Q79.43 15.21 79.10 14.85Q78.78 14.49 78.24 14.49Q77.69 14.49 77.38 14.84Q77.06 15.18 77.06 15.77Z" fill="#FFFFFF"/><path class="svg__text" d="" fill="#FFFFFF" x="105.72"/></svg>