<svg xmlns="http://www.w3.org/2000/svg" width="84.98" height="35" viewBox="0 0 84.98 35"><rect class="svg__rect" x="0" y="0" width="84.98" height="35" fill="#005384"/><rect class="svg__rect" x="84.98" y="0" width="0" height="35" fill="#389AD5"/><path class="svg__text" d="M13.61 19.57L13.61 19.57L15.09 19.57Q15.09 20.25 15.43 20.59Q15.76 20.93 16.40 20.93L16.40 20.93Q17.00 20.93 17.35 20.54Q17.71 20.14 17.71 19.45L17.71 19.45L17.71 13.47L19.19 13.47L19.19 19.45Q19.19 20.68 18.42 21.40Q17.66 22.12 16.40 22.12L16.40 22.12Q15.07 22.12 14.34 21.44Q13.61 20.77 13.61 19.57ZM23.56 18.00L23.56 18.00L23.56 17.52Q23.56 16.28 24.01 15.32Q24.45 14.37 25.25 13.86Q26.06 13.35 27.10 13.35L27.10 13.35Q28.15 13.35 28.96 13.85Q29.76 14.35 30.20 15.29Q30.64 16.23 30.65 17.48L30.65 17.48L30.65 17.96Q30.65 19.17 30.26 20.06Q29.88 20.95 29.19 21.47L29.19 21.47L30.65 22.61L29.69 23.48L27.88 22.04Q27.52 22.12 27.11 22.12L27.11 22.12Q26.08 22.12 25.27 21.61Q24.45 21.10 24.01 20.17Q23.57 19.23 23.56 18.00ZM25.05 17.46L25.05 17.96Q25.05 19.34 25.59 20.12Q26.13 20.90 27.11 20.90L27.11 20.90Q28.10 20.90 28.63 20.15Q29.16 19.40 29.16 17.96L29.16 17.96L29.16 17.51Q29.16 16.07 28.62 15.33Q28.08 14.58 27.10 14.58L27.10 14.58Q26.14 14.58 25.60 15.33Q25.06 16.09 25.05 17.46L25.05 17.46ZM35.01 19.16L35.01 19.16L35.01 13.47L36.48 13.47L36.48 19.18Q36.48 20.03 36.92 20.48Q37.35 20.93 38.19 20.93L38.19 20.93Q39.90 20.93 39.90 19.13L39.90 19.13L39.90 13.47L41.38 13.47L41.38 19.17Q41.38 20.53 40.51 21.32Q39.64 22.12 38.19 22.12L38.19 22.12Q36.73 22.12 35.87 21.33Q35.01 20.55 35.01 19.16ZM51.53 22L45.95 22L45.95 13.47L51.49 13.47L51.49 14.66L47.43 14.66L47.43 17.02L50.94 17.02L50.94 18.19L47.43 18.19L47.43 20.82L51.53 20.82L51.53 22ZM57.21 22L55.73 22L55.73 13.47L58.73 13.47Q60.20 13.47 61.00 14.13Q61.81 14.79 61.81 16.05L61.81 16.05Q61.81 16.90 61.39 17.48Q60.98 18.06 60.24 18.37L60.24 18.37L62.16 21.92L62.16 22L60.57 22L58.86 18.71L57.21 18.71L57.21 22ZM57.21 14.66L57.21 17.52L58.73 17.52Q59.48 17.52 59.90 17.15Q60.32 16.77 60.32 16.11L60.32 16.11Q60.32 15.43 59.93 15.05Q59.55 14.68 58.77 14.66L58.77 14.66L57.21 14.66ZM68.24 18.86L65.38 13.47L67.02 13.47L68.98 17.51L70.95 13.47L72.59 13.47L69.73 18.86L69.73 22L68.24 22L68.24 18.86Z" fill="#FFFFFF"/><path class="svg__text" d="" fill="#FFFFFF" x="97.98"/></svg>