<svg xmlns="http://www.w3.org/2000/svg" width="70.67" height="35" viewBox="0 0 70.67 35"><rect class="svg__rect" x="0" y="0" width="70.67" height="35" fill="#434343"/><rect class="svg__rect" x="70.67" y="0" width="0" height="35" fill="#389AD5"/><path class="svg__text" d="M19.57 22L14.22 22L14.22 13.47L15.70 13.47L15.70 20.82L19.57 20.82L19.57 22ZM25.26 22L23.79 22L23.79 13.47L25.26 13.47L25.26 22ZM31.56 22L30.07 22L30.07 13.47L31.56 13.47L35.37 19.54L35.37 13.47L36.84 13.47L36.84 22L35.36 22L31.56 15.95L31.56 22ZM41.45 19.16L41.45 19.16L41.45 13.47L42.92 13.47L42.92 19.18Q42.92 20.03 43.36 20.48Q43.79 20.93 44.63 20.93L44.63 20.93Q46.34 20.93 46.34 19.13L46.34 19.13L46.34 13.47L47.82 13.47L47.82 19.17Q47.82 20.53 46.95 21.32Q46.08 22.12 44.63 22.12L44.63 22.12Q43.17 22.12 42.31 21.33Q41.45 20.55 41.45 19.16ZM53.49 22L51.76 22L54.41 17.70L51.82 13.47L53.53 13.47L55.33 16.55L57.12 13.47L58.83 13.47L56.25 17.70L58.89 22L57.16 22L55.33 18.87L53.49 22Z" fill="#A7BFC1"/><path class="svg__text" d="" fill="#FFFFFF" x="83.67"/></svg>