<svg xmlns="http://www.w3.org/2000/svg" width="136.29000000000002" height="35" viewBox="0 0 136.29000000000002 35"><rect class="svg__rect" x="0" y="0" width="136.29000000000002" height="35" fill="#BB10CB"/><rect class="svg__rect" x="136.29000000000002" y="0" width="0" height="35" fill="#389AD5"/><path class="svg__text" d="M15.70 22L14.22 22L14.22 13.47L17.48 13.47Q18.91 13.47 19.75 14.21Q20.59 14.96 20.59 16.18L20.59 16.18Q20.59 17.44 19.77 18.13Q18.95 18.83 17.46 18.83L17.46 18.83L15.70 18.83L15.70 22ZM15.70 14.66L15.70 17.64L17.48 17.64Q18.27 17.64 18.69 17.27Q19.10 16.90 19.10 16.19L19.10 16.19Q19.10 15.50 18.68 15.09Q18.26 14.68 17.52 14.66L17.52 14.66L15.70 14.66ZM25.65 22L24.11 22L27.34 13.47L28.67 13.47L31.89 22L30.35 22L29.65 20.01L26.35 20.01L25.65 22ZM28.00 15.28L26.76 18.82L29.23 18.82L28.00 15.28ZM37.33 22L35.85 22L35.85 13.47L38.85 13.47Q40.33 13.47 41.13 14.13Q41.93 14.79 41.93 16.05L41.93 16.05Q41.93 16.90 41.52 17.48Q41.11 18.06 40.37 18.37L40.37 18.37L42.28 21.92L42.28 22L40.70 22L38.98 18.71L37.33 18.71L37.33 22ZM37.33 14.66L37.33 17.52L38.86 17.52Q39.61 17.52 40.03 17.15Q40.45 16.77 40.45 16.11L40.45 16.11Q40.45 15.43 40.06 15.05Q39.67 14.68 38.90 14.66L38.90 14.66L37.33 14.66ZM48.01 14.66L45.37 14.66L45.37 13.47L52.14 13.47L52.14 14.66L49.48 14.66L49.48 22L48.01 22L48.01 14.66ZM57.46 22L55.98 22L55.98 13.47L57.46 13.47L57.46 22ZM62.00 18.19L62.00 18.19L62.00 17.39Q62.00 16.19 62.43 15.27Q62.86 14.35 63.66 13.85Q64.46 13.35 65.50 13.35L65.50 13.35Q66.92 13.35 67.78 14.12Q68.64 14.89 68.78 16.29L68.78 16.29L67.30 16.29Q67.20 15.37 66.77 14.96Q66.34 14.55 65.50 14.55L65.50 14.55Q64.54 14.55 64.02 15.26Q63.50 15.96 63.49 17.33L63.49 17.33L63.49 18.09Q63.49 19.47 63.98 20.20Q64.48 20.92 65.43 20.92L65.43 20.92Q66.31 20.92 66.75 20.53Q67.19 20.14 67.30 19.22L67.30 19.22L68.78 19.22Q68.65 20.59 67.77 21.35Q66.89 22.12 65.43 22.12L65.43 22.12Q64.41 22.12 63.64 21.63Q62.86 21.15 62.44 20.26Q62.02 19.37 62.00 18.19ZM78.45 22L73.09 22L73.09 13.47L74.57 13.47L74.57 20.82L78.45 20.82L78.45 22ZM88.15 22L82.57 22L82.57 13.47L88.11 13.47L88.11 14.66L84.06 14.66L84.06 17.02L87.56 17.02L87.56 18.19L84.06 18.19L84.06 20.82L88.15 20.82L88.15 22ZM91.91 19.42L91.91 19.42L93.39 19.42Q93.39 20.15 93.88 20.55Q94.36 20.95 95.25 20.95L95.25 20.95Q96.03 20.95 96.42 20.63Q96.81 20.32 96.81 19.80L96.81 19.80Q96.81 19.24 96.41 18.94Q96.01 18.63 94.98 18.32Q93.95 18.01 93.34 17.63L93.34 17.63Q92.18 16.90 92.18 15.72L92.18 15.72Q92.18 14.69 93.02 14.02Q93.86 13.35 95.20 13.35L95.20 13.35Q96.09 13.35 96.79 13.68Q97.48 14.01 97.88 14.61Q98.28 15.22 98.28 15.96L98.28 15.96L96.81 15.96Q96.81 15.29 96.39 14.91Q95.97 14.54 95.19 14.54L95.19 14.54Q94.46 14.54 94.06 14.85Q93.66 15.16 93.66 15.71L93.66 15.71Q93.66 16.18 94.09 16.50Q94.53 16.81 95.52 17.10Q96.52 17.40 97.12 17.78Q97.72 18.16 98.01 18.65Q98.29 19.13 98.29 19.79L98.29 19.79Q98.29 20.86 97.47 21.49Q96.65 22.12 95.25 22.12L95.25 22.12Q94.33 22.12 93.55 21.77Q92.77 21.43 92.34 20.83Q91.91 20.22 91.91 19.42ZM102.72 21.85Q102.50 21.63 102.50 21.29Q102.50 20.95 102.72 20.73Q102.93 20.50 103.33 20.50L103.33 20.50Q103.72 20.50 103.94 20.73Q104.16 20.95 104.16 21.29L104.16 21.29Q104.16 21.63 103.94 21.84Q103.72 22.06 103.33 22.06L103.33 22.06Q102.95 22.06 102.72 21.85ZM108.31 19.57L108.31 19.57L109.79 19.57Q109.79 20.25 110.13 20.59Q110.46 20.93 111.10 20.93L111.10 20.93Q111.70 20.93 112.05 20.54Q112.41 20.14 112.41 19.45L112.41 19.45L112.41 13.47L113.89 13.47L113.89 19.45Q113.89 20.68 113.12 21.40Q112.36 22.12 111.10 22.12L111.10 22.12Q109.77 22.12 109.04 21.44Q108.31 20.77 108.31 19.57ZM118.13 19.42L118.13 19.42L119.62 19.42Q119.62 20.15 120.10 20.55Q120.58 20.95 121.47 20.95L121.47 20.95Q122.25 20.95 122.64 20.63Q123.03 20.32 123.03 19.80L123.03 19.80Q123.03 19.24 122.63 18.94Q122.23 18.63 121.20 18.32Q120.17 18.01 119.56 17.63L119.56 17.63Q118.40 16.90 118.40 15.72L118.40 15.72Q118.40 14.69 119.24 14.02Q120.08 13.35 121.42 13.35L121.42 13.35Q122.31 13.35 123.01 13.68Q123.71 14.01 124.10 14.61Q124.50 15.22 124.50 15.96L124.50 15.96L123.03 15.96Q123.03 15.29 122.61 14.91Q122.19 14.54 121.41 14.54L121.41 14.54Q120.68 14.54 120.28 14.85Q119.88 15.16 119.88 15.71L119.88 15.71Q119.88 16.18 120.31 16.50Q120.75 16.81 121.74 17.10Q122.74 17.40 123.34 17.78Q123.95 18.16 124.23 18.65Q124.51 19.13 124.51 19.79L124.51 19.79Q124.51 20.86 123.69 21.49Q122.87 22.12 121.47 22.12L121.47 22.12Q120.55 22.12 119.77 21.77Q118.99 21.43 118.56 20.83Q118.13 20.22 118.13 19.42Z" fill="#FFFFFF"/><path class="svg__text" d="" fill="#FFFFFF" x="149.29000000000002"/></svg>