<svg xmlns="http://www.w3.org/2000/svg" width="54.54" height="35" viewBox="0 0 54.54 35"><rect class="svg__rect" x="0" y="0" width="54.54" height="35" fill="#7377AD"/><rect class="svg__rect" x="54.54" y="0" width="0" height="35" fill="#389AD5"/><path class="svg__text" d="M15.70 22L14.22 22L14.22 13.47L17.48 13.47Q18.91 13.47 19.75 14.21Q20.59 14.96 20.59 16.18L20.59 16.18Q20.59 17.44 19.77 18.13Q18.95 18.83 17.46 18.83L17.46 18.83L15.70 18.83L15.70 22ZM15.70 14.66L15.70 17.64L17.48 17.64Q18.27 17.64 18.69 17.27Q19.10 16.90 19.10 16.19L19.10 16.19Q19.10 15.50 18.68 15.09Q18.26 14.68 17.52 14.66L17.52 14.66L15.70 14.66ZM26.36 22L24.88 22L24.88 13.47L26.36 13.47L26.36 17.02L30.17 17.02L30.17 13.47L31.65 13.47L31.65 22L30.17 22L30.17 18.21L26.36 18.21L26.36 22ZM37.87 22L36.39 22L36.39 13.47L39.65 13.47Q41.08 13.47 41.92 14.21Q42.76 14.96 42.76 16.18L42.76 16.18Q42.76 17.44 41.94 18.13Q41.12 18.83 39.64 18.83L39.64 18.83L37.87 18.83L37.87 22ZM37.87 14.66L37.87 17.64L39.65 17.64Q40.44 17.64 40.86 17.27Q41.28 16.90 41.28 16.19L41.28 16.19Q41.28 15.50 40.85 15.09Q40.43 14.68 39.69 14.66L39.69 14.66L37.87 14.66Z" fill="#000000"/><path class="svg__text" d="" fill="#FFFFFF" x="67.53999999999999"/></svg>