<svg xmlns="http://www.w3.org/2000/svg" width="120.84" height="35" viewBox="0 0 120.84 35"><rect class="svg__rect" x="0" y="0" width="120.84" height="35" fill="#000000"/><rect class="svg__rect" x="120.84" y="0" width="0" height="35" fill="#389AD5"/><path class="svg__text" d="M13.78 19.42L13.78 19.42L15.27 19.42Q15.27 20.15 15.75 20.55Q16.23 20.95 17.12 20.95L17.12 20.95Q17.90 20.95 18.29 20.63Q18.68 20.32 18.68 19.80L18.68 19.80Q18.68 19.24 18.28 18.94Q17.89 18.63 16.85 18.32Q15.82 18.01 15.21 17.63L15.21 17.63Q14.05 16.90 14.05 15.72L14.05 15.72Q14.05 14.69 14.89 14.02Q15.73 13.35 17.07 13.35L17.07 13.35Q17.96 13.35 18.66 13.68Q19.36 14.01 19.75 14.61Q20.15 15.22 20.15 15.96L20.15 15.96L18.68 15.96Q18.68 15.29 18.26 14.91Q17.84 14.54 17.06 14.54L17.06 14.54Q16.33 14.54 15.93 14.85Q15.53 15.16 15.53 15.71L15.53 15.71Q15.53 16.18 15.96 16.50Q16.40 16.81 17.39 17.10Q18.39 17.40 18.99 17.78Q19.60 18.16 19.88 18.65Q20.16 19.13 20.16 19.79L20.16 19.79Q20.16 20.86 19.34 21.49Q18.52 22.12 17.12 22.12L17.12 22.12Q16.20 22.12 15.42 21.77Q14.64 21.43 14.21 20.83Q13.78 20.22 13.78 19.42ZM24.14 18.00L24.14 18.00L24.14 17.52Q24.14 16.28 24.59 15.32Q25.03 14.37 25.83 13.86Q26.64 13.35 27.68 13.35L27.68 13.35Q28.73 13.35 29.54 13.85Q30.34 14.35 30.78 15.29Q31.22 16.23 31.23 17.48L31.23 17.48L31.23 17.96Q31.23 19.17 30.84 20.06Q30.46 20.95 29.77 21.47L29.77 21.47L31.23 22.61L30.27 23.48L28.46 22.04Q28.10 22.12 27.69 22.12L27.69 22.12Q26.66 22.12 25.85 21.61Q25.03 21.10 24.59 20.17Q24.15 19.23 24.14 18.00ZM25.63 17.46L25.63 17.96Q25.63 19.34 26.17 20.12Q26.71 20.90 27.69 20.90L27.69 20.90Q28.68 20.90 29.21 20.15Q29.74 19.40 29.74 17.96L29.74 17.96L29.74 17.51Q29.74 16.07 29.20 15.33Q28.66 14.58 27.68 14.58L27.68 14.58Q26.72 14.58 26.18 15.33Q25.64 16.09 25.63 17.46L25.63 17.46ZM41.08 22L35.72 22L35.72 13.47L37.20 13.47L37.20 20.82L41.08 20.82L41.08 22ZM50.74 19.42L50.74 19.42L52.23 19.42Q52.23 20.15 52.71 20.55Q53.19 20.95 54.08 20.95L54.08 20.95Q54.86 20.95 55.25 20.63Q55.64 20.32 55.64 19.80L55.64 19.80Q55.64 19.24 55.24 18.94Q54.85 18.63 53.81 18.32Q52.78 18.01 52.17 17.63L52.17 17.63Q51.01 16.90 51.01 15.72L51.01 15.72Q51.01 14.69 51.85 14.02Q52.69 13.35 54.03 13.35L54.03 13.35Q54.92 13.35 55.62 13.68Q56.32 14.01 56.72 14.61Q57.11 15.22 57.11 15.96L57.11 15.96L55.64 15.96Q55.64 15.29 55.22 14.91Q54.80 14.54 54.02 14.54L54.02 14.54Q53.29 14.54 52.89 14.85Q52.49 15.16 52.49 15.71L52.49 15.71Q52.49 16.18 52.92 16.50Q53.36 16.81 54.35 17.10Q55.35 17.40 55.95 17.78Q56.56 18.16 56.84 18.65Q57.12 19.13 57.12 19.79L57.12 19.79Q57.12 20.86 56.30 21.49Q55.48 22.12 54.08 22.12L54.08 22.12Q53.16 22.12 52.38 21.77Q51.61 21.43 51.18 20.83Q50.74 20.22 50.74 19.42ZM66.99 22L61.41 22L61.41 13.47L66.95 13.47L66.95 14.66L62.89 14.66L62.89 17.02L66.39 17.02L66.39 18.19L62.89 18.19L62.89 20.82L66.99 20.82L66.99 22ZM72.66 22L71.18 22L71.18 13.47L74.18 13.47Q75.66 13.47 76.46 14.13Q77.26 14.79 77.26 16.05L77.26 16.05Q77.26 16.90 76.85 17.48Q76.44 18.06 75.70 18.37L75.70 18.37L77.62 21.92L77.62 22L76.03 22L74.32 18.71L72.66 18.71L72.66 22ZM72.66 14.66L72.66 17.52L74.19 17.52Q74.94 17.52 75.36 17.15Q75.78 16.77 75.78 16.11L75.78 16.11Q75.78 15.43 75.39 15.05Q75.00 14.68 74.23 14.66L74.23 14.66L72.66 14.66ZM83.96 22L80.90 13.47L82.52 13.47L84.66 20.14L86.83 13.47L88.46 13.47L85.39 22L83.96 22ZM97.99 22L92.41 22L92.41 13.47L97.95 13.47L97.95 14.66L93.89 14.66L93.89 17.02L97.40 17.02L97.40 18.19L93.89 18.19L93.89 20.82L97.99 20.82L97.99 22ZM103.67 22L102.18 22L102.18 13.47L105.18 13.47Q106.66 13.47 107.46 14.13Q108.27 14.79 108.27 16.05L108.27 16.05Q108.27 16.90 107.85 17.48Q107.44 18.06 106.70 18.37L106.70 18.37L108.62 21.92L108.62 22L107.03 22L105.32 18.71L103.67 18.71L103.67 22ZM103.67 14.66L103.67 17.52L105.19 17.52Q105.94 17.52 106.36 17.15Q106.78 16.77 106.78 16.11L106.78 16.11Q106.78 15.43 106.39 15.05Q106.00 14.68 105.23 14.66L105.23 14.66L103.67 14.66Z" fill="#C0797A"/><path class="svg__text" d="" fill="#FFFFFF" x="133.84"/></svg>