<svg xmlns="http://www.w3.org/2000/svg" width="53.3" height="35" viewBox="0 0 53.3 35"><rect class="svg__rect" x="0" y="0" width="53.3" height="35" fill="#FFFFFF"/><rect class="svg__rect" x="53.3" y="0" width="0" height="35" fill="#389AD5"/><path class="svg__text" d="M13.78 19.42L13.78 19.42L15.27 19.42Q15.27 20.15 15.75 20.55Q16.23 20.95 17.12 20.95L17.12 20.95Q17.90 20.95 18.29 20.63Q18.68 20.32 18.68 19.80L18.68 19.80Q18.68 19.24 18.28 18.94Q17.89 18.63 16.85 18.32Q15.82 18.01 15.21 17.63L15.21 17.63Q14.05 16.90 14.05 15.72L14.05 15.72Q14.05 14.69 14.89 14.02Q15.73 13.35 17.07 13.35L17.07 13.35Q17.96 13.35 18.66 13.68Q19.36 14.01 19.75 14.61Q20.15 15.22 20.15 15.96L20.15 15.96L18.68 15.96Q18.68 15.29 18.26 14.91Q17.84 14.54 17.06 14.54L17.06 14.54Q16.33 14.54 15.93 14.85Q15.53 15.16 15.53 15.71L15.53 15.71Q15.53 16.18 15.96 16.50Q16.40 16.81 17.39 17.10Q18.39 17.40 18.99 17.78Q19.60 18.16 19.88 18.65Q20.16 19.13 20.16 19.79L20.16 19.79Q20.16 20.86 19.34 21.49Q18.52 22.12 17.12 22.12L17.12 22.12Q16.20 22.12 15.42 21.77Q14.64 21.43 14.21 20.83Q13.78 20.22 13.78 19.42ZM24.14 18.00L24.14 18.00L24.14 17.52Q24.14 16.28 24.59 15.32Q25.03 14.37 25.83 13.86Q26.64 13.35 27.68 13.35L27.68 13.35Q28.73 13.35 29.54 13.85Q30.34 14.35 30.78 15.29Q31.22 16.23 31.23 17.48L31.23 17.48L31.23 17.96Q31.23 19.17 30.84 20.06Q30.46 20.95 29.77 21.47L29.77 21.47L31.23 22.61L30.27 23.48L28.46 22.04Q28.10 22.12 27.69 22.12L27.69 22.12Q26.66 22.12 25.85 21.61Q25.03 21.10 24.59 20.17Q24.15 19.23 24.14 18.00ZM25.63 17.46L25.63 17.96Q25.63 19.34 26.17 20.12Q26.71 20.90 27.69 20.90L27.69 20.90Q28.68 20.90 29.21 20.15Q29.74 19.40 29.74 17.96L29.74 17.96L29.74 17.51Q29.74 16.07 29.20 15.33Q28.66 14.58 27.68 14.58L27.68 14.58Q26.72 14.58 26.18 15.33Q25.64 16.09 25.63 17.46L25.63 17.46ZM41.08 22L35.72 22L35.72 13.47L37.20 13.47L37.20 20.82L41.08 20.82L41.08 22Z" fill="#E7A11B"/><path class="svg__text" d="" fill="#FFFFFF" x="66.3"/></svg>