<svg xmlns="http://www.w3.org/2000/svg" width="119.79" height="35" viewBox="0 0 119.79 35"><rect class="svg__rect" x="0" y="0" width="119.79" height="35" fill="#2A8FB1"/><rect class="svg__rect" x="119.79" y="0" width="0" height="35" fill="#389AD5"/><path class="svg__text" d="M15.60 22L13.63 13.47L15.10 13.47L16.43 19.88L18.06 13.47L19.30 13.47L20.91 19.89L22.22 13.47L23.69 13.47L21.72 22L20.31 22L18.68 15.77L17.02 22L15.60 22ZM27.49 18.00L27.49 18.00L27.49 17.52Q27.49 16.28 27.94 15.32Q28.38 14.37 29.18 13.86Q29.99 13.35 31.03 13.35Q32.08 13.35 32.88 13.85Q33.69 14.35 34.13 15.29Q34.57 16.23 34.57 17.48L34.57 17.48L34.57 17.96Q34.57 19.21 34.14 20.16Q33.71 21.10 32.90 21.61Q32.09 22.12 31.05 22.12L31.05 22.12Q30.01 22.12 29.20 21.61Q28.39 21.10 27.94 20.17Q27.50 19.23 27.49 18.00ZM28.98 17.46L28.98 17.96Q28.98 19.36 29.52 20.13Q30.07 20.90 31.05 20.90L31.05 20.90Q32.03 20.90 32.56 20.15Q33.09 19.40 33.09 17.96L33.09 17.96L33.09 17.51Q33.09 16.09 32.55 15.34Q32.02 14.58 31.03 14.58L31.03 14.58Q30.07 14.58 29.53 15.33Q28.99 16.09 28.98 17.46L28.98 17.46ZM40.52 22L39.04 22L39.04 13.47L42.04 13.47Q43.51 13.47 44.32 14.13Q45.12 14.79 45.12 16.05L45.12 16.05Q45.12 16.90 44.71 17.48Q44.29 18.06 43.56 18.37L43.56 18.37L45.47 21.92L45.47 22L43.88 22L42.17 18.71L40.52 18.71L40.52 22ZM40.52 14.66L40.52 17.52L42.04 17.52Q42.79 17.52 43.22 17.15Q43.64 16.77 43.64 16.11L43.64 16.11Q43.64 15.43 43.25 15.05Q42.86 14.68 42.08 14.66L42.08 14.66L40.52 14.66ZM51.97 22L49.51 22L49.51 13.47L52.03 13.47Q53.16 13.47 54.04 13.97Q54.92 14.48 55.40 15.40Q55.88 16.33 55.88 17.52L55.88 17.52L55.88 17.95Q55.88 19.16 55.39 20.08Q54.91 21.00 54.02 21.50Q53.12 22 51.97 22L51.97 22ZM51.00 14.66L51.00 20.82L51.96 20.82Q53.13 20.82 53.75 20.09Q54.38 19.36 54.39 17.99L54.39 17.99L54.39 17.52Q54.39 16.13 53.79 15.40Q53.18 14.66 52.03 14.66L52.03 14.66L51.00 14.66ZM61.82 22L60.34 22L60.34 13.47L63.61 13.47Q65.04 13.47 65.88 14.21Q66.72 14.96 66.72 16.18L66.72 16.18Q66.72 17.44 65.89 18.13Q65.07 18.83 63.59 18.83L63.59 18.83L61.82 18.83L61.82 22ZM61.82 14.66L61.82 17.64L63.61 17.64Q64.40 17.64 64.81 17.27Q65.23 16.90 65.23 16.19L65.23 16.19Q65.23 15.50 64.81 15.09Q64.39 14.68 63.65 14.66L63.65 14.66L61.82 14.66ZM72.48 22L71.00 22L71.00 13.47L74.00 13.47Q75.48 13.47 76.28 14.13Q77.08 14.79 77.08 16.05L77.08 16.05Q77.08 16.90 76.67 17.48Q76.26 18.06 75.52 18.37L75.52 18.37L77.43 21.92L77.43 22L75.85 22L74.14 18.71L72.48 18.71L72.48 22ZM72.48 14.66L72.48 17.52L74.01 17.52Q74.76 17.52 75.18 17.15Q75.60 16.77 75.60 16.11L75.60 16.11Q75.60 15.43 75.21 15.05Q74.82 14.68 74.05 14.66L74.05 14.66L72.48 14.66ZM87.06 22L81.48 22L81.48 13.47L87.01 13.47L87.01 14.66L82.96 14.66L82.96 17.02L86.46 17.02L86.46 18.19L82.96 18.19L82.96 20.82L87.06 20.82L87.06 22ZM90.82 19.42L90.82 19.42L92.30 19.42Q92.30 20.15 92.78 20.55Q93.26 20.95 94.16 20.95L94.16 20.95Q94.93 20.95 95.32 20.63Q95.71 20.32 95.71 19.80L95.71 19.80Q95.71 19.24 95.31 18.94Q94.92 18.63 93.89 18.32Q92.86 18.01 92.25 17.63L92.25 17.63Q91.08 16.90 91.08 15.72L91.08 15.72Q91.08 14.69 91.92 14.02Q92.76 13.35 94.10 13.35L94.10 13.35Q94.99 13.35 95.69 13.68Q96.39 14.01 96.79 14.61Q97.19 15.22 97.19 15.96L97.19 15.96L95.71 15.96Q95.71 15.29 95.29 14.91Q94.87 14.54 94.09 14.54L94.09 14.54Q93.37 14.54 92.96 14.85Q92.56 15.16 92.56 15.71L92.56 15.71Q92.56 16.18 93.00 16.50Q93.43 16.81 94.43 17.10Q95.42 17.40 96.03 17.78Q96.63 18.16 96.91 18.65Q97.19 19.13 97.19 19.79L97.19 19.79Q97.19 20.86 96.37 21.49Q95.56 22.12 94.16 22.12L94.16 22.12Q93.23 22.12 92.45 21.77Q91.68 21.43 91.25 20.83Q90.82 20.22 90.82 19.42ZM101.05 19.42L101.05 19.42L102.53 19.42Q102.53 20.15 103.01 20.55Q103.49 20.95 104.39 20.95L104.39 20.95Q105.16 20.95 105.55 20.63Q105.94 20.32 105.94 19.80L105.94 19.80Q105.94 19.24 105.54 18.94Q105.15 18.63 104.12 18.32Q103.09 18.01 102.48 17.63L102.48 17.63Q101.31 16.90 101.31 15.72L101.31 15.72Q101.31 14.69 102.15 14.02Q102.99 13.35 104.33 13.35L104.33 13.35Q105.22 13.35 105.92 13.68Q106.62 14.01 107.02 14.61Q107.42 15.22 107.42 15.96L107.42 15.96L105.94 15.96Q105.94 15.29 105.52 14.91Q105.10 14.54 104.32 14.54L104.32 14.54Q103.60 14.54 103.19 14.85Q102.79 15.16 102.79 15.71L102.79 15.71Q102.79 16.18 103.23 16.50Q103.66 16.81 104.66 17.10Q105.65 17.40 106.26 17.78Q106.86 18.16 107.14 18.65Q107.42 19.13 107.42 19.79L107.42 19.79Q107.42 20.86 106.60 21.49Q105.79 22.12 104.39 22.12L104.39 22.12Q103.46 22.12 102.68 21.77Q101.91 21.43 101.48 20.83Q101.05 20.22 101.05 19.42Z" fill="#FFFFFF"/><path class="svg__text" d="" fill="#FFFFFF" x="132.79000000000002"/></svg>